{"title":"The Very Best of Scotch and Wry (2006) DVDRip XviD peaSoup","uid":8911184,"size":733577216,"categoryP":"video","categoryS":"tv_shows","magnet":"?xt=urn:btih:69c6fc9e7ac47b5f81c93f51ee87a16025ba3aaf&amp;dn=The+Very+Best+of+Scotch+and+Wry+%282006%29+DVDRip+XviD+peaSoup&amp;tr=udp%3A%2F%2Ftracker.openbittorrent.com%3A80&amp;tr=udp%3A%2F%2Fopen.demonii.com%3A1337&amp;tr=udp%3A%2F%2Ftracker.coppersurfer.tk%3A6969&amp;tr=udp%3A%2F%2Fexodus.desync.com%3A6969","seeders":2,"leechers":0,"uploader":"peaSoup","files":-1,"time":1379025660,"description":"Scotch and Wry was a Scottish comedy sketch show which was broadcast on BBC One Scotland and starred Rikki Fulton. After two series, in 1978 and 1979, the programme continued as a regular part of the channel's Hogmanay celebrations between 1980 and 1992, pulling in millions of viewers. The show gave early exposure to actors like Gregor Fisher, Tony Roper, Gerard Kelly and Miriam Margolyes.                       &lt;a href=&quot; http://imageshack.us/a/img571/7381/nw0p.jpg&quot; rel=&quot;nofollow&quot; target=&quot;_NEW&quot;&gt; http://imageshack.us/a/img571/7381/nw0p.jpg&lt;/a&gt;                                         &lt;a href=&quot; http://imageshack.us/a/img10/4584/1pee.jpg&quot; rel=&quot;nofollow&quot; target=&quot;_NEW&quot;&gt; http://imageshack.us/a/img10/4584/1pee.jpg&lt;/a&gt;                                          &lt;a href=&quot; http://imageshack.us/a/img855/6323/yyzk.jpg&quot; rel=&quot;nofollow&quot; target=&quot;_NEW&quot;&gt; http://imageshack.us/a/img855/6323/yyzk.jpg&lt;/a&gt;                                         &lt;a href=&quot; http://imageshack.us/a/img203/9277/7mpd.jpg&quot; rel=&quot;nofollow&quot; target=&quot;_NEW&quot;&gt; http://imageshack.us/a/img203/9277/7mpd.jpg&lt;/a&gt;                                          Format                                   : AVI\nFormat/Info                              : Audio Video Interleave\nFile size                                : 700 MiB\nDuration                                 : 1h 26mn\nOverall bit rate mode                    : Variable\nOverall bit rate                         : 1 124 Kbps\nWriting application                      : VirtualDubMod 1.5.4.1 (build 2178/release)\nWriting library                          : VirtualDubMod build 2178/release\n\nVideo\nID                                       : 0\nFormat                                   : MPEG-4 Visual\nFormat profile                           : Advanced Simple@L5\nFormat settings, BVOP                    : 1\nFormat settings, QPel                    : No\nFormat settings, GMC                     : No warppoints\nFormat settings, Matrix                  : Custom\nCodec ID                                 : XVID\nCodec ID/Hint                            : XviD\nDuration                                 : 1h 26mn\nBit rate                                 : 1 009 Kbps\nWidth                                    : 720 pixels\nHeight                                   : 416 pixels\nDisplay aspect ratio                     : 1.731\nFrame rate                               : 25.000 fps\nColor space                              : YUV\nChroma subsampling                       : 4:2:0\nBit depth                                : 8 bits\nScan type                                : Progressive\nCompression mode                         : Lossy\nBits/(Pixel*Frame)                       : 0.135\nStream size                              : 628 MiB (90%)\nWriting library                          : XviD 1.2.1 (UTC 2008-12-04)\n\nAudio\nID                                       : 1\nFormat                                   : MPEG Audio\nFormat version                           : Version 1\nFormat profile                           : Layer 3\nMode                                     : Joint stereo\nCodec ID                                 : 55\nCodec ID/Hint                            : MP3\nDuration                                 : 1h 26mn\nBit rate mode                            : Variable\nBit rate                                 : 102 Kbps\nNominal bit rate                         : 128 Kbps\nChannel(s)                               : 2 channels\nSampling rate                            : 48.0 KHz\nCompression mode                         : Lossy\nStream size                              : 63.6 MiB (9%)\nAlignment                                : Aligned on interleaves\nInterleave, duration                     : 24 ms (0.60 video frame)\nInterleave, preload duration             : 480 ms\nWriting library                          : LAME3.98r\nEncoding settings                        : -m j -V 4 -q 2 -lowpass 17 --abr 128\nLanguage                                 : English\n\n","torrent":{"xt":"urn:btih:69c6fc9e7ac47b5f81c93f51ee87a16025ba3aaf","amp;dn":"The+Very+Best+of+Scotch+and+Wry+%282006%29+DVDRip+XviD+peaSoup","amp;tr":["udp%3A%2F%2Ftracker.openbittorrent.com%3A80","udp%3A%2F%2Fopen.demonii.com%3A1337","udp%3A%2F%2Ftracker.coppersurfer.tk%3A6969","udp%3A%2F%2Fexodus.desync.com%3A6969"],"infoHash":"69c6fc9e7ac47b5f81c93f51ee87a16025ba3aaf","infoHashBuffer":{"type":"Buffer","data":[105,198,252,158,122,196,123,95,129,201,63,81,238,135,161,96,37,186,58,175]},"announce":[],"urlList":[]}}